/* XPM */
static char * ball_r_xpm[] = {
"32 32 201 2",
"  	c None",
". 	c #EBFCF7",
"+ 	c #E6FBF5",
"@ 	c #E0FAF3",
"# 	c #DAF9F1",
"$ 	c #D4F8EF",
"% 	c #CDF7EC",
"& 	c #F5FDFB",
"* 	c #F0FCF9",
"= 	c #EAFBF7",
"- 	c #E5FBF5",
"; 	c #DFFAF3",
"> 	c #D9F9F1",
", 	c #D3F8EF",
"' 	c #C6F6EA",
") 	c #BFF5E7",
"! 	c #B9F4E5",
"~ 	c #B2F3E2",
"{ 	c #FBFEFD",
"] 	c #E9FBF7",
"^ 	c #E4FAF5",
"/ 	c #DFF9F3",
"( 	c #CEF7EC",
"_ 	c #C7F6EA",
": 	c #C0F5E8",
"< 	c #B1F3E2",
"[ 	c #ACF2E0",
"} 	c #A5F1DE",
"| 	c #A0F0DC",
"1 	c #FEFEFE",
"2 	c #FAFEFD",
"3 	c #EFFCF9",
"4 	c #D5F8EF",
"5 	c #D0F7EE",
"6 	c #CAF6EB",
"7 	c #C4F5E9",
"8 	c #BDF4E6",
"9 	c #B5F3E3",
"0 	c #ADF2E1",
"a 	c #A6F1DE",
"b 	c #9AEFD9",
"c 	c #95EED8",
"d 	c #91EED7",
"e 	c #E5FAF5",
"f 	c #DBF9F1",
"g 	c #D7F8F0",
"h 	c #D3F8EE",
"i 	c #C8F6EB",
"j 	c #C1F5E8",
"k 	c #BAF4E5",
"l 	c #B2F2E3",
"m 	c #AAF1DF",
"n 	c #A2F1DC",
"o 	c #9AEFDA",
"p 	c #8EEDD6",
"q 	c #89ECD4",
"r 	c #87ECD2",
"s 	c #F4FDFB",
"t 	c #DCF9F2",
"u 	c #CFF7ED",
"v 	c #CBF6EC",
"w 	c #C5F5E9",
"x 	c #BFF4E7",
"y 	c #B8F4E4",
"z 	c #B0F2E2",
"A 	c #A7F1DE",
"B 	c #9FF0DC",
"C 	c #97EFD9",
"D 	c #90EDD6",
"E 	c #88ECD4",
"F 	c #84EBD2",
"G 	c #7FEBD0",
"H 	c #7EEBD0",
"I 	c #C9F6EB",
"J 	c #C3F5E8",
"K 	c #BCF4E6",
"L 	c #B6F3E4",
"M 	c #A9F1DF",
"N 	c #A3F0DD",
"O 	c #9CEFDA",
"P 	c #93EED7",
"Q 	c #8BEDD5",
"R 	c #7DEACF",
"S 	c #79EACE",
"T 	c #7BEBCF",
"U 	c #E9FBF6",
"V 	c #E3FAF5",
"W 	c #C6F5EA",
"X 	c #B9F3E5",
"Y 	c #B3F2E3",
"Z 	c #ACF1E1",
"` 	c #9EF0DC",
" .	c #99EFDA",
"..	c #94EED7",
"+.	c #8FEDD5",
"@.	c #87ECD3",
"#.	c #7AEACE",
"$.	c #7DEBCF",
"%.	c #E8FBF6",
"&.	c #DEF9F2",
"*.	c #D8F9F0",
"=.	c #D2F8EE",
"-.	c #93AAFF",
";.	c #8BA4FF",
">.	c #A8F1DF",
",.	c #96EED8",
"'.	c #91EDD7",
").	c #8CEDD5",
"!.	c #81EBD0",
"~.	c #7DEBD0",
"{.	c #7AEBCF",
"].	c #7AEBCE",
"^.	c #E3FAF4",
"/.	c #D7F9F0",
"(.	c #D1F8EE",
"_.	c #BEF5E7",
":.	c #B2F3E3",
"<.	c #839EFF",
"[.	c #7A96FF",
"}.	c #7290FF",
"|.	c #92EED7",
"1.	c #8CECD5",
"2.	c #7CEBCF",
"3.	c #77EACD",
"4.	c #78EACE",
"5.	c #C3F5E9",
"6.	c #BDF5E7",
"7.	c #B8F4E5",
"8.	c #ABF2E0",
"9.	c #698AFF",
"0.	c #6183FF",
"a.	c #587CFF",
"b.	c #81EAD1",
"c.	c #7DE9CF",
"d.	c #77EACE",
"e.	c #DDF9F2",
"f.	c #CCF7EC",
"g.	c #5076FF",
"h.	c #476FFF",
"i.	c #416AFF",
"j.	c #7BEACF",
"k.	c #76EACD",
"l.	c #A7F1DF",
"m.	c #7EEBCF",
"n.	c #75EACD",
"o.	c #BECCFF",
"p.	c #B5C5FF",
"q.	c #ADBEFF",
"r.	c #A4B8FF",
"s.	c #9CB1FF",
"t.	c #D1F7EE",
"u.	c #CBF7EC",
"v.	c #80EBD0",
"w.	c #83ECD1",
"x.	c #D6F8F0",
"y.	c #CEF7ED",
"z.	c #85ECD2",
"A.	c #C2F5E8",
"B.	c #BBF4E6",
"C.	c #83ECD2",
"D.	c #88ECD3",
"E.	c #AEF2E1",
"F.	c #90EED7",
"G.	c #82EBD1",
"H.	c #85EBD2",
"I.	c #86ECD2",
"J.	c #80EBD1",
"K.	c #B7F3E5",
"L.	c #AFF2E1",
"M.	c #A1F0DC",
"N.	c #99EFD9",
"O.	c #8AEDD4",
"P.	c #84ECD2",
"Q.	c #83EBD1",
"R.	c #81EBD1",
"S.	c #B3F3E3",
"T.	c #8FEDD6",
"U.	c #74E5CE",
"V.	c #8CEDD4",
"W.	c #A4F1DE",
"X.	c #9CF0DA",
"Y.	c #8DEDD5",
"Z.	c #7BEACE",
"`.	c #74E2CF",
" +	c #8BECD4",
".+	c #A2F0DC",
"++	c #98EFD9",
"@+	c #79EACD",
"#+	c #82ECD1",
"$+	c #A0F0DB",
"%+	c #75EACC",
"&+	c #79EBCE",
"*+	c #81ECD1",
"=+	c #7CEACF",
"-+	c #98EED8",
";+	c #89ECD3",
">+	c #8EEDD5",
",+	c #74EACD",
"'+	c #74EACC",
")+	c #91EED6",
"!+	c #80ECD1",
"                          . + @ # $ %                           ",
"                    & * = - ; > , % ' ) ! ~                     ",
"                { & * ] ^ / > $ ( _ : ! < [ } |                 ",
"            1 2 & 3 = ^ / # 4 5 6 7 8 9 0 a | b c d             ",
"          1 2 & 3 ] e @ f g h ( i j k l m n o c p q r           ",
"        1 2 s 3 ] ^ @ t g $ u v w x y z A B C D E F G H         ",
"      1 2 s 3 ] ^ ; f g h % I J K L z M N O P Q F R S T G       ",
"      2 s 3 U V / # $ u 6 W : X Y Z a `  ...+.@.G #.S S $.      ",
"    2 s 3 %.V &.*.=.% _ j K -.;.>.| o ,.'.).r !.~.{.S S ].$.    ",
"    & 3 %.^.&./.(.v 7 _.! :.;.<.[.}.|.1.E F G H H 2.S 3.4.S     ",
"  & 3 %.^.&.*.=.v 5.6.7.< 8.<.[.}.9.0.a.b.c.2.~.H $.].d.3.4.2.  ",
"  3 ] V e.*.=.f.w 6.7.< 8.} [.}.9.0.a.g.h.i.j.G G H T 4.3.k.4.  ",
"  ] V e./.h % _ ) 7.< [ l.| }.9.0.a.g.h.i.i.i.i.m.G 2.S k.n.3.  ",
"= V e.g o.p.q.r.s.-.;.<.[.}.9.0.a.g.h.i.i.i.i.i.i.i.$.].3.k.3.2.",
"- e.g t.p.q.r.s.-.;.<.[.}.9.0.a.g.h.i.i.i.i.i.i.i.i.i.i.S 3.4.H ",
"; /.(.u.q.r.s.-.;.<.[.}.9.0.a.g.h.i.i.i.i.i.i.i.i.i.i.i.i.i.#.v.",
"# =.f._ r.s.-.;.<.[.}.9.0.a.g.h.i.i.i.i.i.i.i.i.i.i.i.i.i.i.2.w.",
"x.y._ j s.-.;.<.[.}.9.0.a.g.h.i.i.i.i.i.i.i.i.i.i.i.i.i.H 2.G z.",
"=.I A.B.-.;.<.[.}.9.0.a.g.h.i.i.i.i.i.i.i.i.i.i.i.i.C.G ~.2.v.D.",
"  w 8 9 E.M } | C F.E G.#.3.i.i.i.i.i.i.i.i.i.i.H.I.w.H 2.T J.  ",
"  j K.L.>.M.O N.d O.P.m.#.#.i.i.i.i.i.i.i.i.$.I.D.D.Q.H T T R.  ",
"  x S.M M.b c T.q F m.].T 2.i.i.i.i.i.i.U.2.G.q V.I.R.T S T R.  ",
"    z W.X...Y.@.R.Z.4.].$.G i.i.i.i.k.`.S v. + +@.G.$.S S T     ",
"    L..+++p @.G @+k.3.{.2.R.i.i.2.T ].2.R.z.D.I.#+~.].4.S H     ",
"      $+P q G.S %+n.k.&+2.R.#+P.*+v.#+C.z.P.#+R.2.4.3.4.T       ",
"      B ..r =+k.n.n.k.4.2.G #+P.z.P.P.G.R.G ~.S 3.k.k.3.2.      ",
"        -+;+H ].4.3.3.4.#.2.2.G G G H 2.T S 3.n.n.n.k.S         ",
"          >+z.G $.T ].].{.#.].].S S 4.d.3.n.,+'+n.k.4.          ",
"            )+D.z.*+H $.#.S 3.k.k.k.n.'+,+'+'+,+n.d.            ",
"                d ).z.R.$.4.3.n.'+n.'+'+'+,+n.k.                ",
"                    T.@.G {.4.k.n.n.,+n.k.3.                    ",
"                          !+2.S 4.3.4.                          "};
