/* XPM */
static char * ball_l_xpm[] = {
"32 32 196 2",
"  	c None",
". 	c #EBFCF7",
"+ 	c #E6FBF5",
"@ 	c #E0FAF3",
"# 	c #DAF9F1",
"$ 	c #D4F8EF",
"% 	c #CDF7EC",
"& 	c #F5FDFB",
"* 	c #F0FCF9",
"= 	c #EAFBF7",
"- 	c #E5FBF5",
"; 	c #DFFAF3",
"> 	c #D9F9F1",
", 	c #D3F8EF",
"' 	c #C6F6EA",
") 	c #BFF5E7",
"! 	c #B9F4E5",
"~ 	c #B2F3E2",
"{ 	c #FBFEFD",
"] 	c #E9FBF7",
"^ 	c #E4FAF5",
"/ 	c #DFF9F3",
"( 	c #CEF7EC",
"_ 	c #C7F6EA",
": 	c #C0F5E8",
"< 	c #B1F3E2",
"[ 	c #ACF2E0",
"} 	c #A5F1DE",
"| 	c #A0F0DC",
"1 	c #FEFEFE",
"2 	c #FAFEFD",
"3 	c #EFFCF9",
"4 	c #D5F8EF",
"5 	c #D0F7EE",
"6 	c #CAF6EB",
"7 	c #C4F5E9",
"8 	c #BDF4E6",
"9 	c #B5F3E3",
"0 	c #ADF2E1",
"a 	c #A6F1DE",
"b 	c #9AEFD9",
"c 	c #95EED8",
"d 	c #91EED7",
"e 	c #E5FAF5",
"f 	c #DBF9F1",
"g 	c #D7F8F0",
"h 	c #D3F8EE",
"i 	c #C8F6EB",
"j 	c #C1F5E8",
"k 	c #BAF4E5",
"l 	c #B2F2E3",
"m 	c #AAF1DF",
"n 	c #A2F1DC",
"o 	c #9AEFDA",
"p 	c #8EEDD6",
"q 	c #89ECD4",
"r 	c #87ECD2",
"s 	c #F4FDFB",
"t 	c #DCF9F2",
"u 	c #CFF7ED",
"v 	c #CBF6EC",
"w 	c #C5F5E9",
"x 	c #BFF4E7",
"y 	c #B8F4E4",
"z 	c #B0F2E2",
"A 	c #A7F1DE",
"B 	c #9FF0DC",
"C 	c #97EFD9",
"D 	c #90EDD6",
"E 	c #88ECD4",
"F 	c #84EBD2",
"G 	c #7FEBD0",
"H 	c #7EEBD0",
"I 	c #C9F6EB",
"J 	c #C3F5E8",
"K 	c #BCF4E6",
"L 	c #B6F3E4",
"M 	c #A9F1DF",
"N 	c #A3F0DD",
"O 	c #9CEFDA",
"P 	c #93EED7",
"Q 	c #8BEDD5",
"R 	c #7DEACF",
"S 	c #79EACE",
"T 	c #7BEBCF",
"U 	c #E9FBF6",
"V 	c #E3FAF5",
"W 	c #C6F5EA",
"X 	c #B9F3E5",
"Y 	c #B3F2E3",
"Z 	c #ACF1E1",
"` 	c #9EF0DC",
" .	c #99EFDA",
"..	c #94EED7",
"+.	c #8FEDD5",
"@.	c #87ECD3",
"#.	c #7AEACE",
"$.	c #7DEBCF",
"%.	c #E8FBF6",
"&.	c #DEF9F2",
"*.	c #D8F9F0",
"=.	c #D2F8EE",
"-.	c #AEF2E1",
";.	c #839EFF",
">.	c #7A96FF",
",.	c #96EED8",
"'.	c #91EDD7",
").	c #8CEDD5",
"!.	c #81EBD0",
"~.	c #7DEBD0",
"{.	c #7AEBCF",
"].	c #7AEBCE",
"^.	c #E3FAF4",
"/.	c #D7F9F0",
"(.	c #D1F8EE",
"_.	c #BEF5E7",
":.	c #B8F3E5",
"<.	c #B2F3E3",
"[.	c #8BA4FF",
"}.	c #7290FF",
"|.	c #92EED7",
"1.	c #8DEDD5",
"2.	c #7CEBCF",
"3.	c #77EACD",
"4.	c #78EACE",
"5.	c #C3F5E9",
"6.	c #BDF4E7",
"7.	c #B7F3E5",
"8.	c #93AAFF",
"9.	c #698AFF",
"0.	c #86ECD3",
"a.	c #82EBD1",
"b.	c #7EEBCF",
"c.	c #77EACE",
"d.	c #DDF9F2",
"e.	c #CCF7EC",
"f.	c #9CB1FF",
"g.	c #6183FF",
"h.	c #80EBD1",
"i.	c #7BEACE",
"j.	c #76EACD",
"k.	c #A4B8FF",
"l.	c #587CFF",
"m.	c #83EBD2",
"n.	c #75EACD",
"o.	c #CEF7ED",
"p.	c #ADBEFF",
"q.	c #5076FF",
"r.	c #476FFF",
"s.	c #416AFF",
"t.	c #D1F7EE",
"u.	c #B5C5FF",
"v.	c #BECCFF",
"w.	c #80EBD0",
"x.	c #83ECD1",
"y.	c #D6F8F0",
"z.	c #85ECD2",
"A.	c #C2F5E8",
"B.	c #BBF4E6",
"C.	c #B1F2E2",
"D.	c #88ECD3",
"E.	c #85EBD2",
"F.	c #86ECD2",
"G.	c #AFF2E1",
"H.	c #A8F1DF",
"I.	c #A1F0DC",
"J.	c #99EFD9",
"K.	c #8AEDD4",
"L.	c #83EBD1",
"M.	c #81EBD1",
"N.	c #B3F3E3",
"O.	c #8FEDD6",
"P.	c #77E6CF",
"Q.	c #8CEDD4",
"R.	c #A4F1DE",
"S.	c #9CF0DA",
"T.	c #79E3D1",
"U.	c #8BECD4",
"V.	c #A2F0DC",
"W.	c #98EFD9",
"X.	c #79EACD",
"Y.	c #82ECD1",
"Z.	c #A0F0DB",
"`.	c #75EACC",
" +	c #79EBCE",
".+	c #84ECD2",
"++	c #81ECD1",
"@+	c #83ECD2",
"#+	c #7CEACF",
"$+	c #98EED8",
"%+	c #89ECD3",
"&+	c #8EEDD5",
"*+	c #74EACD",
"=+	c #74EACC",
"-+	c #91EED6",
";+	c #80ECD1",
"                          . + @ # $ %                           ",
"                    & * = - ; > , % ' ) ! ~                     ",
"                { & * ] ^ / > $ ( _ : ! < [ } |                 ",
"            1 2 & 3 = ^ / # 4 5 6 7 8 9 0 a | b c d             ",
"          1 2 & 3 ] e @ f g h ( i j k l m n o c p q r           ",
"        1 2 s 3 ] ^ @ t g $ u v w x y z A B C D E F G H         ",
"      1 2 s 3 ] ^ ; f g h % I J K L z M N O P Q F R S T G       ",
"      2 s 3 U V / # $ u 6 W : X Y Z a `  ...+.@.G #.S S $.      ",
"    2 s 3 %.V &.*.=.% _ j K 9 -.;.>.o ,.'.).r !.~.{.S S ].$.    ",
"    & 3 %.^.&./.(.v 7 _.:.<.[.;.>.}.|.1.E F G H H 2.S 3.4.S     ",
"  & 3 %.^.&.*.=.v 5.6.7.8.[.;.>.}.9.Q 0.a.b.2.~.H $.].c.3.4.2.  ",
"  3 ] V d.*.=.e.w 6.f.8.[.;.>.}.9.g.0.h.i.].2.G G H T 4.3.j.4.  ",
"  ] V d./.h % _ k.f.8.[.;.>.}.9.g.l.m.R 4.].2.G b.G 2.S j.n.3.  ",
"= V d.g =.o.p.k.f.8.[.;.>.}.9.g.l.q.r.s.s.s.s.s.s.s.s.s.3.j.3.2.",
"- d.g t.u.p.k.f.8.[.;.>.}.9.g.l.q.r.s.s.s.s.s.s.s.s.s.s.S 3.4.H ",
"; /.v.u.p.k.f.8.[.;.>.}.9.g.l.q.r.s.s.s.s.s.s.s.s.s.s.s.T S #.w.",
"# =.u.p.k.f.8.[.;.>.}.9.g.l.q.r.s.s.s.s.s.s.s.s.s.s.s.s.$.T 2.x.",
"y.o._ j f.8.[.;.>.}.9.g.l.q.r.s.s.s.s.s.s.s.s.s.s.s.s.s.H 2.G z.",
"=.I A.B.L C.;.>.}.9.g.l.q.r.s.s.s.s.s.s.s.s.s.s.s.s.s.s.~.2.w.D.",
"  w 8 9 -.M } | 9.g.l.q.r.s.s.s.s.s.n.n.n.j.S H E.F.x.H 2.T h.  ",
"  j 7.G.H.I.O J.d K.q.r.s.s.s.s.s.s.n.n.n.4.$.F.D.D.L.H T T M.  ",
"  x N.M I.b c O.q F b.P.s.s.s.s.s.s.n.n.j.2.a.q Q.F.M.T S T M.  ",
"    z R.S...1.@.M.i.4.].T.G s.s.s.s.j.3.S w.U.U.@.a.$.S S T     ",
"    G.V.W.p @.G X.j.3.{.2.M.w.G s.s.].2.M.z.D.F.Y.~.].4.S H     ",
"      Z.P q a.S `.n.j. +2.M.Y..+++w.Y.@+z..+Y.M.2.4.3.4.T       ",
"      B ..r #+j.n.n.j.4.2.G Y..+z..+.+a.M.G ~.S 3.j.j.3.2.      ",
"        $+%+H ].4.3.3.4.#.2.2.G G G H 2.T S 3.n.n.n.j.S         ",
"          &+z.G $.T ].].{.#.].].S S 4.c.3.n.*+=+n.j.4.          ",
"            -+D.z.++H $.#.S 3.j.j.j.n.=+*+=+=+*+n.c.            ",
"                d ).z.M.$.4.3.n.=+n.=+=+=+*+n.j.                ",
"                    O.@.G {.4.j.n.n.*+n.j.3.                    ",
"                          ;+2.S 4.3.4.                          "};
