/* XPM */
static char * block_xpm[] = {
"32 32 12 1",
" 	c None",
".	c #FFA6A7",
"+	c #B73F41",
"@	c #FB3A3D",
"#	c #C5D2FE",
"$	c #9EAEE1",
"%	c #8790AE",
"&	c #000000",
"*	c #FFFFFF",
"=	c #FFFB00",
"-	c #FF0D00",
";	c #0009FF",
"................................",
"...............................+",
"..@@@@@@@@@@@@@@@@@@@@@@@@@@@@++",
"..@@@@@@@@@@@@@@@@@@@@@@@@@@@@++",
"..@@@@@@@@@@@@@@@@@@@@@@@@@@@@++",
"..@@@@@@@@@@@@@@@@@@@@@@@@@@@@++",
"..@@@@@@@@@@@@@@@@@@@@@@@@@@@@++",
"..@@@@@@@@@@@@@@@@@@@@@@@@@@@@++",
"..@@@@@@@@@@@@@@@@@@@@@@@@@@@@++",
"..@@@@@@@@@@@@@@@@@@@@@@@@@@@@++",
"..@@@@@@@@@@@@@@@@@@@@@@@@@@@@++",
"..@@@@@@@@@@@@@@@@@@@@@@@@@@@@++",
"..@@@@@@######################++",
"..@@@@@@#$$$$$$$$$$$$$$$$$$$$%++",
"..@@@@@@#$$$$$$$$$$$$$$$$$$$$%++",
"..@@@@@@#$$&&$$$$$$$$$$$$$$$$%++",
"..@@@@@@#$$&&$$$$$$$$$$$$$$$$%++",
"..@@@@@@#$$$$$$$$$$$$$$$$$$$$%++",
"..@@@@@@#$$$$$$$$$$$$$$$$$$$$%++",
"..@@@@@@#$$$***************$$%++",
"..@@@@@@#$$$$$$$$$$$$$$$$$$$$%++",
"..@@@@@@#$$$$$$$$$$$$$$$$$$$$%++",
"..@@@@@@#$$$$$$$$$$$$$$$$$$$$%++",
"..@@@@@@#$$$$$$$$$$$$$$$$$$$$%++",
"..@@@@@@#$$$$$$$$$$$$$$$$$$$$%++",
"..@@@@@@#$$$$$$$$==$$--$$;;$$%++",
"..@@@@@@#$$$$$$$$==$$--$$;;$$%++",
"..@@@@@@#$$$$$$$$$$$$$$$$$$$$%++",
"..@@@@@@#$$$$$$$$$$$$$$$$$$$$%++",
"..@@@@@@%%%%%%%%%%%%%%%%%%%%%%++",
".+++++++++++++++++++++++++++++++",
"++++++++++++++++++++++++++++++++"};
