/* XPM */
static char * block_xpm[] = {
"32 32 4 1",
" 	c None",
".	c #FFA6A7",
"+	c #B73F41",
"@	c #FF6567",
"................................",
"...............................+",
"..@@@@@@@@@@@@@@@@@@@@@@@@@@@@++",
"..@@@@@@@@@@@@@@@@@@@@@@@@@@@@++",
"..@@@@@@@@@@@@@@@@@@@@@@@@@@@@++",
"..@@@@@@@@@@@@@@@@@@@@@@@@@@@@++",
"..@@@@@@@@++++++++++++++++++++++",
"..@@@@@@@@++++++++++++++++++++++",
"..@@@@@@@@++@@@@@@@@@@@@@@@@@@++",
"..@@@@@@@@++@@@@@@@@@@@@@@@@@@++",
"..@@@@@@@@++@@@@@@@@@@@@@@@@@@++",
"..@@@@@@@@++@@@@@@@@@@@@@@@@@@++",
".+++++++++++@@@@@@@@@@@@@@@@@@++",
"++++++++++++@@@@@@@@@@@@@@@@@@++",
"...................@@.......@@++",
"..................+@@.@@@@@+@@++",
"..@@@@@@@@@@@@@@@++@@+++++++@@++",
"..@@@@@@@@@@@@@@@++@@@@@@@@@@@++",
"..@@@@@@@@@@@@@@@++@@@@@@@@@@@++",
"..@@@@@@@@@@@@@@@++@@@@@@@@@@@++",
"..@@@@@@@@@@@@@@@++@@@@@@@@@@@++",
"..@@@@@@@@@@@@@@@++@@@@@@@@@@@++",
"..@@@@@@@@@@@@@@@++@@@@@@@@@@@++",
"..@@@@@@@@@@@@@@@++@@@@@@@@@@@++",
"..@@@@@@@@@@@@@@@+............++",
"..@@@@.......................+++",
"..@@@@.@@@@@@@@@@@@@@@@@@@@@@+++",
"..@@@@.@@@@@@@@@@@@@@@@@@@@@@+++",
"..@@@@.@@@@@@@@@@@@@@@@@@@@@@+++",
"..@@@@++++++++++++++++++++++++++",
".+++++++++++++++++++++++++++++++",
"++++++++++++++++++++++++++++++++"};
