/* XPM */
static char * gang_r_xpm[] = {
"32 32 184 2",
"  	c None",
". 	c #FEFEFE",
"+ 	c #F2FDFD",
"@ 	c #F3FDFD",
"# 	c #E7FCFC",
"$ 	c #E9FCFC",
"% 	c #DCFAFB",
"& 	c #D0F9F9",
"* 	c #DEFBFB",
"= 	c #D2F9FA",
"- 	c #C5F8F8",
"; 	c #B9F6F7",
"> 	c #DFFBFB",
", 	c #D3F9FA",
"' 	c #C7F8F8",
") 	c #BAF6F7",
"! 	c #AEF5F6",
"~ 	c #A2F3F4",
"{ 	c #D5F9FA",
"] 	c #C9F8F9",
"^ 	c #BCF6F7",
"/ 	c #B0F5F6",
"( 	c #A3F3F4",
"_ 	c #97F2F3",
": 	c #8BF0F2",
"< 	c #7EEFF0",
"[ 	c #D7FAFA",
"} 	c #CBF8F9",
"| 	c #BEF7F7",
"1 	c #B2F5F6",
"2 	c #A5F4F5",
"3 	c #99F2F3",
"4 	c #8DF1F2",
"5 	c #80EFF1",
"6 	c #74EEEF",
"7 	c #67ECEE",
"8 	c #CCF8F9",
"9 	c #C0F7F8",
"0 	c #B4F5F6",
"a 	c #A7F4F5",
"b 	c #9BF2F3",
"c 	c #8FF1F2",
"d 	c #82EFF1",
"e 	c #76EEEF",
"f 	c #69ECEE",
"g 	c #5DEBED",
"h 	c #53EAEC",
"i 	c #CEF9F9",
"j 	c #C2F7F8",
"k 	c #B5F6F6",
"l 	c #A9F4F5",
"m 	c #9DF3F4",
"n 	c #90F1F2",
"o 	c #84F0F1",
"p 	c #78EEF0",
"q 	c #6BECEE",
"r 	c #5FEBED",
"s 	c #C3F7F8",
"t 	c #B7F6F7",
"u 	c #ABF4F5",
"v 	c #9EF3F4",
"w 	c #92F1F3",
"x 	c #86F0F1",
"y 	c #79EEF0",
"z 	c #6DEDEE",
"A 	c #61EBED",
"B 	c #54EAEC",
"C 	c #D1F9FA",
"D 	c #ACF4F5",
"E 	c #A0F3F4",
"F 	c #94F1F3",
"G 	c #87F0F1",
"H 	c #7BEEF0",
"I 	c #6FEDEF",
"J 	c #62EBED",
"K 	c #56EAEC",
"L 	c #A1F3F4",
"M 	c #95F2F3",
"N 	c #89F0F2",
"O 	c #7CEFF0",
"P 	c #70EDEF",
"Q 	c #64ECED",
"R 	c #57EAEC",
"S 	c #8AF0F2",
"T 	c #72EDEF",
"U 	c #65ECEE",
"V 	c #59EAEC",
"W 	c #FFFFFF",
"X 	c #000000",
"Y 	c #C1F7F8",
"Z 	c #9CF2F4",
"` 	c #77EEF0",
" .	c #AAF4F5",
"..	c #85F0F1",
"+.	c #60EBED",
"@.	c #93F1F3",
"#.	c #6EEDEF",
"$.	c #63ECED",
"%.	c #52E9EB",
"&.	c #51E6E8",
"*.	c #50E2E4",
"=.	c #4FDFE1",
"-.	c #4EDCDE",
";.	c #4DD9DB",
">.	c #80EFF0",
",.	c #5BEAEC",
"'.	c #50E3E5",
").	c #4EDDDF",
"!.	c #4CD6D8",
"~.	c #4AD3D4",
"{.	c #49CFD1",
"].	c #48CCCE",
"^.	c #47C8CA",
"/.	c #52E7E9",
"(.	c #51E4E6",
"_.	c #4FE0E2",
":.	c #49D0D2",
"<.	c #47C9CB",
"[.	c #46C6C7",
"}.	c #45C2C4",
"|.	c #44BFC1",
"1.	c #42BCBD",
"2.	c #41B8BA",
"3.	c #5EEBED",
"4.	c #45C3C5",
"5.	c #43BDBE",
"6.	c #41B9BA",
"7.	c #40B5B7",
"8.	c #3FB2B4",
"9.	c #3EAFB0",
"0.	c #3CABAD",
"a.	c #51E5E7",
"b.	c #50E1E3",
"c.	c #40B6B8",
"d.	c #3EB0B1",
"e.	c #3DACAD",
"f.	c #3BA8AA",
"g.	c #3AA6A7",
"h.	c #39A2A3",
"i.	c #389EA0",
"j.	c #379C9D",
"k.	c #4FDEE0",
"l.	c #4CD8DA",
"m.	c #4BD4D6",
"n.	c #4AD2D3",
"o.	c #49CED0",
"p.	c #47CACC",
"q.	c #3DADAE",
"r.	c #3CA9AB",
"s.	c #39A3A4",
"t.	c #389FA1",
"u.	c #36999A",
"v.	c #359596",
"w.	c #339193",
"x.	c #328F90",
"y.	c #48CBCD",
"z.	c #46C8C9",
"A.	c #45C5C6",
"B.	c #44C1C3",
"C.	c #43BDBF",
"D.	c #42BBBC",
"E.	c #41B7B9",
"F.	c #40B4B6",
"G.	c #3EB1B2",
"H.	c #3CAAAC",
"I.	c #3BA7A8",
"J.	c #38A0A1",
"K.	c #379C9E",
"L.	c #359697",
"M.	c #349294",
"N.	c #318C8D",
"O.	c #308889",
"P.	c #2F8586",
"Q.	c #3FB2B3",
"R.	c #3DAEAF",
"S.	c #3BA7A9",
"T.	c #3AA4A5",
"U.	c #379D9F",
"V.	c #369A9B",
"W.	c #349395",
"X.	c #339091",
"Y.	c #30898A",
"Z.	c #2F8587",
"`.	c #2E8283",
"                                                                ",
"                                                                ",
"                                                                ",
"                                                                ",
"                                                                ",
"                . +                                             ",
"                @ #                                             ",
"                $ % &                                           ",
"                * = - ;                                         ",
"              > , ' ) ! ~                                       ",
"              { ] ^ / ( _ : <                                   ",
"            [ } | 1 2 3 4 5 6 7                                 ",
"            8 9 0 a b c d e f g h h                             ",
"          i j k l m n o p q r h h h h                           ",
"        & s t u v w x y z A B h h h h h h h                     ",
"    * C - ; D E F G H I J K h h h h h h h h h h                 ",
"  > , ' ) ! L M N O P Q R h h h h h h h h h h h h               ",
"  { ] ^ / ( _ S < T U V h h h h h h h h h h h h h h h           ",
"[ } | 1 2 3 4 5 W W W h h h h h h h h W W W h h h h h h         ",
"8 9 0 a b c d W X X X W h h h h h h W X X X W h h h h h h h     ",
"Y k l Z n o ` W X X X W h h h h h h W X X X W h h h h h h h h   ",
"t  .v w ..y z +.W W W h h h h h h h h W W W h h h h h h h h h h ",
"D E @.G H #.J K h h h h h h h h h h h h h h h h h h h h h h h h ",
"L M N O P $.R h h h h h h h h h h h h h h h h h h h h h h h h %.",
"_ S < T U V h h h h h h h h h h h h h h h h h h h h h &.*.=.-.;.",
"4 >.6 7 ,.h h h h W h h h h h h h h h h h h W '.=.).;.!.~.{.].^.",
"d e f g h h h h W X W W h h h h h /.(._.W W X W :.].<.[.}.|.1.2.",
"  q 3.h h h h h h W X X W W W W W W W W X X W 4.|.5.6.7.8.9.0.  ",
"  +.B h h h h %.a.b.W W X X X X X X X X W W c.8.d.e.f.g.h.i.j.  ",
"    %.&.*.k.-.l.m.n.o.p.W W W W W W W W q.r.g.s.t.j.u.v.w.x.    ",
"        n.{.y.z.A.B.C.D.E.F.G.q.H.I.s.J.K.u.L.M.x.N.O.P.        ",
"                F.Q.R.H.S.T.J.U.V.L.W.X.N.Y.Z.`.                "};
