/* XPM */
static char * gang_d_xpm[] = {
"32 32 217 2",
"  	c None",
". 	c #FEFEFE",
"+ 	c #F6FEFE",
"@ 	c #EFFDFD",
"# 	c #EDFCFD",
"$ 	c #E6FBFC",
"% 	c #DEFBFB",
"& 	c #D7FAFA",
"* 	c #E4FBFC",
"= 	c #DCFAFB",
"- 	c #D5F9FA",
"; 	c #CEF9F9",
"> 	c #C7F8F8",
", 	c #BFF7F7",
"' 	c #E1FBFB",
") 	c #DAFAFA",
"! 	c #D3F9FA",
"~ 	c #CBF8F9",
"{ 	c #C4F7F8",
"] 	c #BDF7F7",
"^ 	c #B6F6F6",
"/ 	c #AEF5F6",
"( 	c #A7F4F5",
"_ 	c #9FF3F4",
": 	c #DFFBFB",
"< 	c #D8FAFA",
"[ 	c #D1F9F9",
"} 	c #C9F8F9",
"| 	c #C2F7F8",
"1 	c #BBF6F7",
"2 	c #B4F5F6",
"3 	c #ACF4F5",
"4 	c #A5F4F5",
"5 	c #9DF3F4",
"6 	c #96F2F3",
"7 	c #8FF1F2",
"8 	c #88F0F1",
"9 	c #80EFF1",
"0 	c #DDFAFB",
"a 	c #CFF9F9",
"b 	c #C0F7F8",
"c 	c #B8F6F7",
"d 	c #B1F5F6",
"e 	c #AAF4F5",
"f 	c #A3F3F4",
"g 	c #9BF2F4",
"h 	c #94F1F3",
"i 	c #8DF1F2",
"j 	c #86F0F1",
"k 	c #7EEFF0",
"l 	c #77EEF0",
"m 	c #70EDEF",
"n 	c #68ECEE",
"o 	c #61EBED",
"p 	c #E2FBFB",
"q 	c #DBFAFB",
"r 	c #CCF8F9",
"s 	c #C5F8F8",
"t 	c #FFFFFF",
"u 	c #A1F3F4",
"v 	c #99F2F3",
"w 	c #92F1F3",
"x 	c #8AF0F2",
"y 	c #83EFF1",
"z 	c #7CEFF0",
"A 	c #75EEEF",
"B 	c #57EAEC",
"C 	c #53EAEC",
"D 	c #E0FBFB",
"E 	c #D9FAFA",
"F 	c #D1F9FA",
"G 	c #CAF8F9",
"H 	c #BCF6F7",
"I 	c #000000",
"J 	c #90F1F2",
"K 	c #81EFF1",
"L 	c #7AEEF0",
"M 	c #72EDEF",
"N 	c #6BEDEE",
"O 	c #C8F8F8",
"P 	c #B9F6F7",
"Q 	c #B2F5F6",
"R 	c #ABF4F5",
"S 	c #7FEFF0",
"T 	c #78EEF0",
"U 	c #69ECEE",
"V 	c #62EBED",
"W 	c #5BEAEC",
"X 	c #CDF8F9",
"Y 	c #C6F8F8",
"Z 	c #BEF7F7",
"` 	c #B7F6F7",
" .	c #B0F5F6",
"..	c #A8F4F5",
"+.	c #9AF2F3",
"@.	c #93F1F3",
"#.	c #76EEEF",
"$.	c #6EEDEF",
"%.	c #67ECEE",
"&.	c #5FEBED",
"*.	c #59EAEC",
"=.	c #B5F6F6",
"-.	c #A6F4F5",
";.	c #98F2F3",
">.	c #91F1F2",
",.	c #89F0F2",
"'.	c #82EFF1",
").	c #74EEEF",
"!.	c #6CEDEE",
"~.	c #65ECEE",
"{.	c #5DEBED",
"].	c #56EAEC",
"^.	c #52E9EB",
"/.	c #A4F3F5",
"(.	c #95F2F3",
"_.	c #87F0F1",
":.	c #80EFF0",
"<.	c #71EDEF",
"[.	c #6AECEE",
"}.	c #63EBED",
"|.	c #5BEBEC",
"1.	c #54EAEC",
"2.	c #51E6E8",
"3.	c #50E2E4",
"4.	c #4FDFE1",
"5.	c #4EDCDE",
"6.	c #4DD9DB",
"7.	c #9BF2F3",
"8.	c #8CF1F2",
"9.	c #85F0F1",
"0.	c #6FEDEF",
"a.	c #60EBED",
"b.	c #50E3E5",
"c.	c #4EDDDF",
"d.	c #4CD6D8",
"e.	c #4AD3D4",
"f.	c #49CFD1",
"g.	c #48CCCE",
"h.	c #47C8CA",
"i.	c #7BEEF0",
"j.	c #6DEDEE",
"k.	c #5EEBED",
"l.	c #52E7E9",
"m.	c #51E4E6",
"n.	c #4FE0E2",
"o.	c #49D0D2",
"p.	c #47C9CB",
"q.	c #46C6C7",
"r.	c #45C2C4",
"s.	c #44BFC1",
"t.	c #42BCBD",
"u.	c #41B8BA",
"v.	c #6BECEE",
"w.	c #63ECED",
"x.	c #5CEBED",
"y.	c #55EAEC",
"z.	c #45C3C5",
"A.	c #43BDBE",
"B.	c #41B9BA",
"C.	c #40B5B7",
"D.	c #3FB2B4",
"E.	c #3EAFB0",
"F.	c #3CABAD",
"G.	c #5AEAEC",
"H.	c #51E5E7",
"I.	c #50E1E3",
"J.	c #40B6B8",
"K.	c #3EB0B1",
"L.	c #3DACAD",
"M.	c #3BA8AA",
"N.	c #3AA6A7",
"O.	c #39A2A3",
"P.	c #389EA0",
"Q.	c #379C9D",
"R.	c #4FDEE0",
"S.	c #4CD8DA",
"T.	c #4BD4D6",
"U.	c #4AD2D3",
"V.	c #49CED0",
"W.	c #47CACC",
"X.	c #3DADAE",
"Y.	c #3CA9AB",
"Z.	c #39A3A4",
"`.	c #389FA1",
" +	c #36999A",
".+	c #359596",
"++	c #339193",
"@+	c #328F90",
"#+	c #48CBCD",
"$+	c #46C8C9",
"%+	c #45C5C6",
"&+	c #44C1C3",
"*+	c #43BDBF",
"=+	c #42BBBC",
"-+	c #41B7B9",
";+	c #40B4B6",
">+	c #3EB1B2",
",+	c #3CAAAC",
"'+	c #3BA7A8",
")+	c #38A0A1",
"!+	c #379C9E",
"~+	c #359697",
"{+	c #349294",
"]+	c #318C8D",
"^+	c #308889",
"/+	c #2F8586",
"(+	c #3FB2B3",
"_+	c #3DAEAF",
":+	c #3BA7A9",
"<+	c #3AA4A5",
"[+	c #379D9F",
"}+	c #369A9B",
"|+	c #349395",
"1+	c #339091",
"2+	c #30898A",
"3+	c #2F8587",
"4+	c #2E8283",
"                                                                ",
"                                                                ",
"                                                                ",
"                                                                ",
"                                                                ",
"                                                                ",
"                                                                ",
"                                                                ",
"                                                                ",
"                                                                ",
"                                                                ",
"                                                                ",
"                              . .                               ",
"                              + @                               ",
"                            # $ % &                             ",
"                          * = - ; > ,                           ",
"                      ' ) ! ~ { ] ^ / ( _                       ",
"                  : < [ } | 1 2 3 4 5 6 7 8 9                   ",
"              0 - a > b c d e f g h i j k l m n o               ",
"        p q ! r s t t t ( u v w x y z A t t t B C C C C         ",
"    D E F G | H t I I I t J 8 K L M N t I I I t C C C C C C     ",
"  & a O b P Q R t I I I t S T m U V W t I I I t C C C C C C C   ",
"X Y Z `  ...u +.@.t t t #.$.%.&.*.C C C t t t C C C C C C C C C ",
"H =./ -._ ;.>.,.'.L ).!.~.{.].C C C C C C C C C C C C C C C C ^.",
"3 /.5 (.7 _.:.T <.[.}.|.1.C C C C C C C C C C C C C C 2.3.4.5.6.",
"7.@.8.9.k #.0.%.a.t C C C C C C C C C C C C t b.4.c.6.d.e.f.g.h.",
"x '.i.).j.~.k.B t I t t C C C C C l.m.n.t t I t o.g.p.q.r.s.t.u.",
"  M v.w.x.y.C C C t I I t t t t t t t t I I t z.s.A.B.C.D.E.F.  ",
"  o G.C C C C ^.H.I.t t I I I I I I I I t t J.D.K.L.M.N.O.P.Q.  ",
"    ^.2.3.R.5.S.T.U.V.W.t t t t t t t t X.Y.N.Z.`.Q. +.+++@+    ",
"        U.f.#+$+%+&+*+=+-+;+>+X.,+'+Z.)+!+ +~+{+@+]+^+/+        ",
"                ;+(+_+,+:+<+)+[+}+~+|+1+]+2+3+4+                "};
