/* XPM */
static char * gang_l_xpm[] = {
"32 32 216 2",
"  	c None",
". 	c #FEFEFE",
"+ 	c #F7FEFE",
"@ 	c #F8FEFE",
"# 	c #EEFDFD",
"$ 	c #E5FBFC",
"% 	c #EFFDFD",
"& 	c #E6FBFC",
"* 	c #DCFAFB",
"= 	c #D3F9FA",
"- 	c #E6FCFC",
"; 	c #DDFAFB",
"> 	c #CBF8F9",
", 	c #C1F7F8",
"' 	c #B8F6F7",
") 	c #E7FCFC",
"! 	c #D4F9FA",
"~ 	c #C2F7F8",
"{ 	c #AFF5F6",
"] 	c #A5F4F5",
"^ 	c #DEFBFB",
"/ 	c #D5F9FA",
"( 	c #B9F6F7",
"_ 	c #B0F5F6",
": 	c #A6F4F5",
"< 	c #9DF3F4",
"[ 	c #93F1F3",
"} 	c #8AF0F2",
"| 	c #DFFBFB",
"1 	c #CCF8F9",
"2 	c #A7F4F5",
"3 	c #94F1F3",
"4 	c #81EFF1",
"5 	c #78EEF0",
"6 	c #D6FAFA",
"7 	c #CDF8F9",
"8 	c #C3F7F8",
"9 	c #BAF6F7",
"0 	c #9EF3F4",
"a 	c #95F2F3",
"b 	c #8BF0F2",
"c 	c #82EFF1",
"d 	c #6FEDEF",
"e 	c #66ECEE",
"f 	c #5DEBED",
"g 	c #E0FBFB",
"h 	c #D7FAFA",
"i 	c #C4F7F8",
"j 	c #B1F5F6",
"k 	c #A8F4F5",
"l 	c #9FF3F4",
"m 	c #8CF1F2",
"n 	c #79EEF0",
"o 	c #70EDEF",
"p 	c #54EAEC",
"q 	c #53EAEC",
"r 	c #E1FBFB",
"s 	c #CEF9F9",
"t 	c #BBF6F7",
"u 	c #B2F5F6",
"v 	c #96F2F3",
"w 	c #8DF1F2",
"x 	c #83EFF1",
"y 	c #7AEEF0",
"z 	c #67ECEE",
"A 	c #55EAEC",
"B 	c #D8FAFA",
"C 	c #CFF9F9",
"D 	c #C5F8F8",
"E 	c #BCF6F7",
"F 	c #A9F4F5",
"G 	c #97F2F3",
"H 	c #84F0F1",
"I 	c #71EDEF",
"J 	c #5EEBED",
"K 	c #D9FAFA",
"L 	c #C6F8F8",
"M 	c #B3F5F6",
"N 	c #AAF4F5",
"O 	c #A0F3F4",
"P 	c #8EF1F2",
"Q 	c #7BEEF0",
"R 	c #72EDEF",
"S 	c #68ECEE",
"T 	c #5FEBED",
"U 	c #D0F9F9",
"V 	c #C7F8F8",
"W 	c #BDF7F7",
"X 	c #B4F5F6",
"Y 	c #A1F3F4",
"Z 	c #FFFFFF",
"` 	c #7CEFF0",
" .	c #69ECEE",
"..	c #56EAEC",
"+.	c #BEF7F7",
"@.	c #ABF4F5",
"#.	c #98F2F3",
"$.	c #000000",
"%.	c #60EBED",
"&.	c #57EAEC",
"*.	c #B5F6F6",
"=.	c #ACF4F5",
"-.	c #A2F3F4",
";.	c #99F2F3",
">.	c #8FF1F2",
",.	c #86F0F1",
"'.	c #BFF7F7",
").	c #B6F6F6",
"!.	c #A3F3F4",
"~.	c #90F1F2",
"{.	c #7DEFF0",
"].	c #74EEEF",
"^.	c #6BECEE",
"/.	c #ADF5F5",
"(.	c #9AF2F3",
"_.	c #91F1F2",
":.	c #87F0F1",
"<.	c #7EEFF0",
"[.	c #6BEDEE",
"}.	c #62EBED",
"|.	c #59EAEC",
"1.	c #9BF2F3",
"2.	c #88F0F1",
"3.	c #75EEEF",
"4.	c #6CEDEE",
"5.	c #63EBED",
"6.	c #52E9EB",
"7.	c #7FEFF0",
"8.	c #76EEEF",
"9.	c #63ECED",
"0.	c #5AEAEC",
"a.	c #51E6E8",
"b.	c #50E2E4",
"c.	c #4FDFE1",
"d.	c #4EDCDE",
"e.	c #4DD9DB",
"f.	c #6DEDEE",
"g.	c #5BEAEC",
"h.	c #50E3E5",
"i.	c #4EDDDF",
"j.	c #4CD6D8",
"k.	c #4AD3D4",
"l.	c #49CFD1",
"m.	c #48CCCE",
"n.	c #47C8CA",
"o.	c #64ECED",
"p.	c #52E7E9",
"q.	c #51E4E6",
"r.	c #4FE0E2",
"s.	c #49D0D2",
"t.	c #47C9CB",
"u.	c #46C6C7",
"v.	c #45C2C4",
"w.	c #44BFC1",
"x.	c #42BCBD",
"y.	c #41B8BA",
"z.	c #45C3C5",
"A.	c #43BDBE",
"B.	c #41B9BA",
"C.	c #40B5B7",
"D.	c #3FB2B4",
"E.	c #3EAFB0",
"F.	c #3CABAD",
"G.	c #51E5E7",
"H.	c #50E1E3",
"I.	c #40B6B8",
"J.	c #3EB0B1",
"K.	c #3DACAD",
"L.	c #3BA8AA",
"M.	c #3AA6A7",
"N.	c #39A2A3",
"O.	c #389EA0",
"P.	c #379C9D",
"Q.	c #4FDEE0",
"R.	c #4CD8DA",
"S.	c #4BD4D6",
"T.	c #4AD2D3",
"U.	c #49CED0",
"V.	c #47CACC",
"W.	c #3DADAE",
"X.	c #3CA9AB",
"Y.	c #39A3A4",
"Z.	c #389FA1",
"`.	c #36999A",
" +	c #359596",
".+	c #339193",
"++	c #328F90",
"@+	c #48CBCD",
"#+	c #46C8C9",
"$+	c #45C5C6",
"%+	c #44C1C3",
"&+	c #43BDBF",
"*+	c #42BBBC",
"=+	c #41B7B9",
"-+	c #40B4B6",
";+	c #3EB1B2",
">+	c #3CAAAC",
",+	c #3BA7A8",
"'+	c #38A0A1",
")+	c #379C9E",
"!+	c #359697",
"~+	c #349294",
"{+	c #318C8D",
"]+	c #308889",
"^+	c #2F8586",
"/+	c #3FB2B3",
"(+	c #3DAEAF",
"_+	c #3BA7A9",
":+	c #3AA4A5",
"<+	c #379D9F",
"[+	c #369A9B",
"}+	c #349395",
"|+	c #339091",
"1+	c #30898A",
"2+	c #2F8587",
"3+	c #2E8283",
"                                                                ",
"                                                                ",
"                                                                ",
"                                                                ",
"                                                                ",
"                                            . .                 ",
"                                            . +                 ",
"                                          @ # $                 ",
"                                        % & * =                 ",
"                                      - ; = > , '               ",
"                                  ) ; ! > ~ ' { ]               ",
"                                ^ / > ~ ( _ : < [ }             ",
"                            | / 1 ~ ( _ 2 < 3 } 4 5             ",
"                          6 7 8 9 _ 2 0 a b c 5 d e f           ",
"                    g h 7 i 9 j k l a m c n o e f p q q         ",
"                r h s i t u k l v w x y o z f A q q q q q q     ",
"              B C D E u F l G w H y I z J A q q q q q q q q q   ",
"          K C L E M N O G P H Q R S T A q q q q q q q q q q q   ",
"        U V W X N Y Z Z Z ` R  .T ..q q q Z Z Z q q q q q q q q ",
"    U V +.X @.Y #.Z $.$.$.Z %.&.q q q q Z $.$.$.Z q q q q q q q ",
"  V +.*.=.-.;.>.,.Z $.$.$.Z q q q q q q Z $.$.$.Z q q q q q q q ",
"'.).=.!.;.~.,.{.].^.Z Z Z q q q q q q q q Z Z Z q q q q q q q q ",
"/.!.(._.:.<.].[.}.|.q q q q q q q q q q q q q q q q q q q q q q ",
"1._.2.<.3.4.5.|.q q q q q q q q q q q q q q q q q q q q q q q 6.",
"2.7.8.4.9.0.q q q q q q q q q q q q q q q q q q q q q a.b.c.d.e.",
"8.f.9.g.q q q q q Z q q q q q q q q q q q q Z h.c.i.e.j.k.l.m.n.",
"o.g.q q q q q q Z $.Z Z q q q q q p.q.r.Z Z $.Z s.m.t.u.v.w.x.y.",
"  q q q q q q q q Z $.$.Z Z Z Z Z Z Z Z $.$.Z z.w.A.B.C.D.E.F.  ",
"  q q q q q q 6.G.H.Z Z $.$.$.$.$.$.$.$.Z Z I.D.J.K.L.M.N.O.P.  ",
"    6.a.b.Q.d.R.S.T.U.V.Z Z Z Z Z Z Z Z W.X.M.Y.Z.P.`. +.+++    ",
"        T.l.@+#+$+%+&+*+=+-+;+W.>+,+Y.'+)+`.!+~+++{+]+^+        ",
"                -+/+(+>+_+:+'+<+[+!+}+|+{+1+2+3+                "};
