/* XPM */
static char * test1_xpm[] = {
"32 32 230 2",
"  	c None",
". 	c #ECFCFC",
"+ 	c #E3FBFB",
"@ 	c #E1FBFB",
"# 	c #D8FAFA",
"$ 	c #DFFBFB",
"% 	c #D7FAFA",
"& 	c #CDF8F9",
"* 	c #C4F7F8",
"= 	c #D5F9FA",
"- 	c #CCF8F9",
"; 	c #C3F7F8",
"> 	c #BAF6F7",
", 	c #D3F9FA",
"' 	c #CAF8F9",
") 	c #C1F7F8",
"! 	c #B8F6F7",
"~ 	c #B0F5F6",
"{ 	c #A6F4F5",
"] 	c #D1F9FA",
"^ 	c #C9F8F9",
"/ 	c #C0F7F8",
"( 	c #B6F6F7",
"_ 	c #AEF5F6",
": 	c #A5F4F5",
"< 	c #9CF2F4",
"[ 	c #93F1F3",
"} 	c #D0F9F9",
"| 	c #C7F8F8",
"1 	c #BEF7F7",
"2 	c #B5F6F6",
"3 	c #ACF4F5",
"4 	c #A3F3F4",
"5 	c #9AF2F3",
"6 	c #91F1F2",
"7 	c #88F0F1",
"8 	c #80EFF0",
"9 	c #CEF9F9",
"0 	c #C5F8F8",
"a 	c #BCF6F7",
"b 	c #B3F5F6",
"c 	c #AAF4F5",
"d 	c #A1F3F4",
"e 	c #99F2F3",
"f 	c #90F1F2",
"g 	c #86F0F1",
"h 	c #7EEFF0",
"i 	c #75EEEF",
"j 	c #6CEDEE",
"k 	c #B2F5F6",
"l 	c #A9F4F5",
"m 	c #9FF3F4",
"n 	c #97F2F3",
"o 	c #8EF1F2",
"p 	c #85F0F1",
"q 	c #7CEFF0",
"r 	c #73EDEF",
"s 	c #6AECEE",
"t 	c #61EBED",
"u 	c #59EAEC",
"v 	c #CBF8F9",
"w 	c #C2F7F8",
"x 	c #B9F6F7",
"y 	c #A7F4F5",
"z 	c #9EF3F4",
"A 	c #95F2F3",
"B 	c #8DF1F2",
"C 	c #83EFF1",
"D 	c #7AEEF0",
"E 	c #72EDEF",
"F 	c #69ECEE",
"G 	c #5FEBED",
"H 	c #57EAEC",
"I 	c #53EAEC",
"J 	c #DBFAFB",
"K 	c #D2F9FA",
"L 	c #B7F6F7",
"M 	c #9DF3F4",
"N 	c #8AF0F2",
"O 	c #82EFF1",
"P 	c #79EEF0",
"Q 	c #70EDEF",
"R 	c #67ECEE",
"S 	c #5EEBED",
"T 	c #55EAEC",
"U 	c #D9FAFA",
"V 	c #B6F6F6",
"W 	c #ADF5F5",
"X 	c #9BF2F3",
"Y 	c #92F1F3",
"Z 	c #89F0F2",
"` 	c #77EEF0",
" .	c #6EEDEF",
"..	c #65ECEE",
"+.	c #5CEBED",
"@.	c #CFF9F9",
"#.	c #C6F8F8",
"$.	c #B4F5F6",
"%.	c #ABF4F5",
"&.	c #A2F3F4",
"*.	c #87F0F1",
"=.	c #76EEEF",
"-.	c #63ECED",
";.	c #5BEAEC",
">.	c #D6FAFA",
",.	c #BBF6F7",
"'.	c #A0F3F4",
").	c #FFFFFF",
"!.	c #74EEEF",
"~.	c #6BECEE",
"{.	c #62EBED",
"].	c #D4F9FA",
"^.	c #000000",
"/.	c #60EBED",
"(.	c #AFF5F6",
"_.	c #94F1F3",
":.	c #56EAEC",
"<.	c #C8F8F8",
"[.	c #BFF7F7",
"}.	c #A4F3F5",
"|.	c #9BF2F4",
"1.	c #80EFF1",
"2.	c #5DEBED",
"3.	c #54EAEC",
"4.	c #BDF7F7",
"5.	c #7FEFF0",
"6.	c #6DEDEE",
"7.	c #64ECED",
"8.	c #5BEBEC",
"9.	c #98F2F3",
"0.	c #8FF1F2",
"a.	c #7DEFF0",
"b.	c #6BEDEE",
"c.	c #63EBED",
"d.	c #52E9EB",
"e.	c #A8F4F5",
"f.	c #96F2F3",
"g.	c #84F0F1",
"h.	c #58EAEC",
"i.	c #51E6E8",
"j.	c #50E2E4",
"k.	c #4FDFE1",
"l.	c #4EDCDE",
"m.	c #4DD9DB",
"n.	c #8CF1F2",
"o.	c #71EDEF",
"p.	c #68ECEE",
"q.	c #50E3E5",
"r.	c #4EDDDF",
"s.	c #4CD6D8",
"t.	c #4AD3D4",
"u.	c #49CFD1",
"v.	c #48CCCE",
"w.	c #47C8CA",
"x.	c #81EFF1",
"y.	c #78EEF0",
"z.	c #66ECEE",
"A.	c #52E7E9",
"B.	c #51E4E6",
"C.	c #4FE0E2",
"D.	c #49D0D2",
"E.	c #47C9CB",
"F.	c #46C6C7",
"G.	c #45C2C4",
"H.	c #44BFC1",
"I.	c #42BCBD",
"J.	c #41B8BA",
"K.	c #45C3C5",
"L.	c #43BDBE",
"M.	c #41B9BA",
"N.	c #40B5B7",
"O.	c #3FB2B4",
"P.	c #3EAFB0",
"Q.	c #3CABAD",
"R.	c #5AEAEC",
"S.	c #51E5E7",
"T.	c #50E1E3",
"U.	c #40B6B8",
"V.	c #3EB0B1",
"W.	c #3DACAD",
"X.	c #3BA8AA",
"Y.	c #3AA6A7",
"Z.	c #39A2A3",
"`.	c #389EA0",
" +	c #379C9D",
".+	c #60EAEC",
"++	c #57E6E8",
"@+	c #4FDEE0",
"#+	c #4CD8DA",
"$+	c #4BD4D6",
"%+	c #4AD2D3",
"&+	c #49CED0",
"*+	c #47CACC",
"=+	c #3DADAE",
"-+	c #3CA9AB",
";+	c #39A3A4",
">+	c #389FA1",
",+	c #36999A",
"'+	c #359596",
")+	c #339193",
"!+	c #328F90",
"~+	c #48CBCD",
"{+	c #46C8C9",
"]+	c #45C5C6",
"^+	c #44C1C3",
"/+	c #43BDBF",
"(+	c #42BBBC",
"_+	c #41B7B9",
":+	c #40B4B6",
"<+	c #3EB1B2",
"[+	c #3CAAAC",
"}+	c #3BA7A8",
"|+	c #38A0A1",
"1+	c #379C9E",
"2+	c #359697",
"3+	c #349294",
"4+	c #318C8D",
"5+	c #308889",
"6+	c #2F8586",
"7+	c #3FB2B3",
"8+	c #3DAEAF",
"9+	c #3BA7A9",
"0+	c #3AA4A5",
"a+	c #379D9F",
"b+	c #369A9B",
"c+	c #349395",
"d+	c #339091",
"e+	c #30898A",
"f+	c #2F8587",
"g+	c #2E8283",
"                                                                ",
"                                                                ",
"                                                                ",
"                                                                ",
"                                                                ",
"                                                                ",
"                                                                ",
"                                                                ",
"                                                                ",
"                                                                ",
"                                                                ",
"                                                                ",
"                              . +                               ",
"                              @ #                               ",
"                            = - ; >                             ",
"                          , ' ) ! ~ {                           ",
"                      } | 1 2 3 4 5 6 7 8                       ",
"                  & ; > k l m n o p q r s t u                   ",
"              , v w x ~ y z A B C D E F G H I I I               ",
"        U } | 1 V W 4 X Y Z 8 `  ...+.I I I I I I I I I         ",
"    >.& * ,.k c '.).).).q !.~.{.u I I I ).).).I I I I I I I     ",
"  ].v w > ~ y m ).^.^.^.).F /.H I I I ).^.^.^.).I I I I I I I   ",
"<.[.( W }.|.[ Z 1.).).).2.3.I I I I I I ).).).I I I I I I I I I ",
"b c d 9.0.g a.!.b.c.u I I I I I I I I I I I I I I I I I I I I d.",
"e.m f.B g.q r F t h.I I I I I I I I I I I I I I I I I i.j.k.l.m.",
"[ N x.y.Q z.2.T ).^.).).I I I I I A.B.C.).).^.).D.v.E.F.G.H.I.J.",
"  8 =.6...+.I I I ).^.^.).).).).).).).).^.^.).K.H.L.M.N.O.P.Q.  ",
"    .+++j.@+l.#+$+%+&+*+).).).).).).).).=+-+Y.;+>+ +,+'+)+!+    ",
"                :+7+8+[+9+0+|+a+b+2+c+d+4+e+f+g+                ",
"                                                                ",
"                                                                ",
"                                                                "};
